<svg xmlns="http://www.w3.org/2000/svg" viewBox="-535.308 2930.585 397.323 1030.492">
  <defs>
    <style>
      .cls-1 {
        fill: #fff;
        opacity: 0.397;
      }
    </style>
  </defs>
  <path id="Path_585" data-name="Path 585" class="cls-1" d="M458.431,235.845A196.179,196.179,0,0,0,394.689,197.6c-19.122-6.374-36.12-10.624-55.243-12.748V110.486c23.372-8.5,38.245-27.621,38.245-53.118a57.367,57.367,0,1,0-114.735,0c0,25.5,17,46.744,38.245,53.118v76.49a241.452,241.452,0,0,0-53.118,12.748,196.183,196.183,0,0,0-63.742,38.245c-19.123,17-34,38.245-46.744,63.742-10.624,25.5-17,55.243-17,89.238V828.643c0,34,6.374,65.866,17,89.239,10.624,25.5,27.621,44.619,46.744,61.617a196.185,196.185,0,0,0,63.742,38.245,206.884,206.884,0,0,0,72.24,12.748,215.838,215.838,0,0,0,72.241-12.748A196.184,196.184,0,0,0,456.306,979.5c19.122-17,34-36.121,44.619-61.617s17-55.243,17-89.239V388.825c0-34-6.374-63.742-17-89.239C492.426,274.09,477.553,252.842,458.431,235.845Zm-55.243,592.8c0,29.746-8.5,50.993-23.372,63.742-17,12.748-34,21.247-57.368,21.247-21.247,0-40.369-6.374-57.367-21.247-17-12.748-23.372-34-23.372-63.742V388.825c0-29.746,8.5-50.993,23.372-63.742,17-12.748,34-21.247,57.367-21.247,21.247,0,40.37,6.374,57.368,21.247,17,12.748,23.372,34,23.372,63.742Z" transform="translate(-655.908 2930.585)"/>
</svg>
