<svg xmlns="http://www.w3.org/2000/svg" viewBox="-1294 2771.585 192.398 51.755">
  <defs>
    <style>
      .cls-1 {
        fill: #7ec7f5;
      }

      .cls-2 {
        fill: #007ec1;
      }
    </style>
  </defs>
  <g id="Group_871" data-name="Group 871" transform="translate(-1294 2771.585)">
    <path id="Path_535" data-name="Path 535" class="cls-1" d="M5.976,9.1H0V50.824H17.821V44.848H5.976Z" transform="translate(0 0.611)"/>
    <path id="Path_536" data-name="Path 536" class="cls-1" d="M27.084,9.1,17.8,50.824h5.976l1.707-8.964h8.11L35.3,50.824h5.976L32.1,9.1ZM26.55,36.2l2.881-15.153h.107L32.419,36.2Z" transform="translate(1.194 0.611)"/>
    <path id="Path_537" data-name="Path 537" class="cls-1" d="M62.59,36.2h-.107L57.574,9.1H52.986l-4.7,26.464h-.107L45.2,9.1H38.9l6.189,41.724h5.656l4.482-27.1h.107l4.589,27.1h5.656L71.767,9.1h-6.3Z" transform="translate(2.61 0.611)"/>
    <path id="Path_538" data-name="Path 538" class="cls-1" d="M87.939,34.177h-.107L78.762,9.1H73V50.824h5.976V25.747h.107L88.26,50.824h5.656V9.1H87.939Z" transform="translate(4.898 0.611)"/>
    <path id="Path_539" data-name="Path 539" class="cls-1" d="M114.567,12.3a9.712,9.712,0,0,0-3.308-2.348A13.469,13.469,0,0,0,106.35,9.1H97.6V50.824h8.11c3.948,0,6.723-.96,8.537-2.881s2.668-4.8,2.668-8.43V37.165a11.723,11.723,0,0,0-.96-5.229,6.277,6.277,0,0,0-3.095-2.881,8.755,8.755,0,0,0,3.095-2.774,5.719,5.719,0,0,0,.747-2.027,11.3,11.3,0,0,0,.213-2.881V19.664a16.02,16.02,0,0,0-.534-3.948A8.137,8.137,0,0,0,114.567,12.3ZM111.259,40.58a6.9,6.9,0,0,1-.64,2.241,3.646,3.646,0,0,1-1.6,1.494,6.577,6.577,0,0,1-2.881.534h-2.561V31.509h2.668a6.669,6.669,0,0,1,2.668.427,3.489,3.489,0,0,1,1.6,1.174,7.36,7.36,0,0,1,.747,2.028,19.6,19.6,0,0,1,.213,2.774C111.366,38.765,111.366,39.726,111.259,40.58Zm-.96-15.9c-.64.96-2.027,1.494-4.055,1.494h-2.668V14.649h2.454c2.027,0,3.415.427,4.162,1.387a6.787,6.787,0,0,1,1.174,4.268A7.164,7.164,0,0,1,110.3,24.68Z" transform="translate(6.549 0.611)"/>
    <path id="Path_540" data-name="Path 540" class="cls-2" d="M137.567,11.845a9.853,9.853,0,0,0-3.2-1.921,13.033,13.033,0,0,0-2.774-.64V5.549a2.754,2.754,0,0,0,1.921-2.668,2.881,2.881,0,1,0-5.762,0,2.789,2.789,0,0,0,1.921,2.668V9.391a12.126,12.126,0,0,0-2.668.64,9.853,9.853,0,0,0-3.2,1.921,10.376,10.376,0,0,0-2.348,3.2,11.57,11.57,0,0,0-.854,4.482V41.617a11.184,11.184,0,0,0,.854,4.482,8.52,8.52,0,0,0,2.348,3.095,9.853,9.853,0,0,0,3.2,1.921,10.39,10.39,0,0,0,3.628.64,10.84,10.84,0,0,0,3.628-.64,9.853,9.853,0,0,0,3.2-1.921A8.273,8.273,0,0,0,139.7,46.1a11.57,11.57,0,0,0,.854-4.482V19.528a11.57,11.57,0,0,0-.854-4.482A7.376,7.376,0,0,0,137.567,11.845Zm-2.774,29.772a4.03,4.03,0,0,1-1.174,3.2,4.554,4.554,0,0,1-2.881,1.067,4.207,4.207,0,0,1-2.881-1.067c-.854-.64-1.174-1.707-1.174-3.2V19.528a4.03,4.03,0,0,1,1.174-3.2,4.554,4.554,0,0,1,2.881-1.067,4.207,4.207,0,0,1,2.881,1.067c.854.64,1.174,1.707,1.174,3.2Z" transform="translate(8.092 0)"/>
    <path id="Path_541" data-name="Path 541" class="cls-1" d="M141,14.649h6.936V50.824h5.976V14.649h6.936V9.1H141Z" transform="translate(9.461 0.611)"/>
    <path id="Path_542" data-name="Path 542" class="cls-1" d="M181.482,21.072V18.191a8.708,8.708,0,0,0-2.668-6.4,9.89,9.89,0,0,0-3.2-2.134,10.214,10.214,0,0,0-4.055-.854,10.371,10.371,0,0,0-4.589.96,7.927,7.927,0,0,0-3.095,2.454,10.755,10.755,0,0,0-1.921,3.628,15.167,15.167,0,0,0-.64,4.482,14.424,14.424,0,0,0,1.281,6.509c.854,1.707,2.561,3.095,5.229,4.162l4.268,1.707c.747.32,1.387.64,1.814.854a3.392,3.392,0,0,1,1.067,1.067,3.637,3.637,0,0,1,.427,1.707A19.759,19.759,0,0,1,175.506,39a18.908,18.908,0,0,1-.107,2.561,5.075,5.075,0,0,1-.534,1.921,3.678,3.678,0,0,1-1.281,1.281,4.862,4.862,0,0,1-2.348.427,3.745,3.745,0,0,1-3.2-1.281,4.77,4.77,0,0,1-.96-2.988V39H161.1V41.24a9.995,9.995,0,0,0,.747,3.948,9.4,9.4,0,0,0,2.134,3.095,9.89,9.89,0,0,0,3.2,2.134,10.16,10.16,0,0,0,4.055.747,11.508,11.508,0,0,0,4.909-.96,8.523,8.523,0,0,0,3.2-2.561,10.546,10.546,0,0,0,1.707-3.842,23.056,23.056,0,0,0,.534-4.909c0-1.494-.107-2.881-.213-4.055a10.1,10.1,0,0,0-.854-3.2,6.671,6.671,0,0,0-1.921-2.348,14.876,14.876,0,0,0-3.2-1.814l-4.589-1.814A9.3,9.3,0,0,1,169,24.7a5.059,5.059,0,0,1-1.067-1.067,3.474,3.474,0,0,1-.427-1.494,11.621,11.621,0,0,1-.107-2.027,11.82,11.82,0,0,1,.213-2.027,4.715,4.715,0,0,1,.64-1.707A4.549,4.549,0,0,1,169.53,15.2a3.815,3.815,0,0,1,2.027-.427,3.592,3.592,0,0,1,3.2,1.494,6.206,6.206,0,0,1,.96,3.521v1.387h5.762Z" transform="translate(10.81 0.591)"/>
  </g>
</svg>
